<svg xmlns="http://www.w3.org/2000/svg" xmlns:svg="http://www.w3.org/2000/svg" version="1.1" x="0" y="0" width="1054" height="141" viewBox="329.2 487.6 365.6 48.9" enable-background="new 0 0 1024px 1024px" xml:space="preserve" fill="#272425"><path d="M355.8 525.6c-0.1 0-0.2 0-0.4 0 0 0-2.4 0.4-3.7 0.4-8.6-0.1-15.6-7.2-15.5-15.8 0.1-8.6 7.2-15.6 15.8-15.5 8.6 0.1 15.6 7.2 15.5 15.8 0 1.1-0.3 3.2-0.3 3.2s0 0.2 0 0.4c0 1.9 1.5 3.5 3.5 3.5 3.4 0.1 3.6-3.8 3.6-3.8 0.1-0.5 0.3-2.1 0.3-3.2 0.1-12.5-10-22.8-22.4-22.9s-22.8 10-22.9 22.4c-0.1 12.5 10 22.8 22.4 22.9 1.7 0 3.3-0.2 4.8-0.5 0 0 0 0 0 0 0 0 0 0 0 0 1.6-0.3 2.7-1.7 2.8-3.4C359.3 527.2 357.8 525.7 355.8 525.6zM375.7 524.7c-1.1-1-2.6-1.6-4.2-1.7-7.1 0-12.9-5.8-12.9-12.8-0.1-1.7-0.7-3.3-1.9-4.5-1.3-1.3-2.9-2-4.7-2-3.7 0-6.7 3-6.7 6.7 0 1.8 0.7 3.5 2 4.7l0.1 0.1c1.2 1.2 2.8 1.8 4.5 1.9 7 0.1 12.6 5.7 12.8 12.6 0 1.9 0.7 3.6 2 4.8 1.3 1.3 2.9 2 4.7 2 3.7 0 6.7-3 6.7-6.7 0-1.7-0.7-3.3-1.8-4.6L375.7 524.7zM406.5 487.9c-13.4 0-22.8 10.3-22.8 22.5v0.1c0 12.2 9.3 22.4 22.7 22.4 13.4 0 22.8-10.3 22.8-22.5v-0.1C429.2 498 419.8 487.9 406.5 487.9zM421.6 510.5c0 8.5-6.5 15.3-15.1 15.3-8.6 0-15.3-7-15.3-15.4v-0.1c0-8.5 6.5-15.4 15.1-15.4s15.3 7 15.3 15.5V510.5zM472.5 488.3c-2.1 0-3.7 1.7-3.7 3.7v26.7l-21.8-28.2c-1.1-1.3-2.1-2.2-4-2.2h-0.8c-2.2 0-3.9 1.7-3.9 3.9v36.5c0 2.1 1.7 3.7 3.8 3.7 2.1 0 3.7-1.7 3.7-3.7v-27.6l22.4 29c1.1 1.4 2.2 2.3 4 2.3h0.3c2.1 0 3.7-1.7 3.7-3.8v-36.5C476.3 490 474.7 488.3 472.5 488.3zM521.1 520.7c-0.9 0-1.7 0.4-2.3 0.9-3.2 2.7-6.3 4.2-10.9 4.2-8.3 0-14.8-6.9-14.8-15.4v-0.1c0-8.5 6.5-15.4 14.8-15.4 4.2 0 7.4 1.5 10.4 3.9 0.5 0.4 1.2 0.7 2.3 0.7 2.1 0 3.8-1.6 3.8-3.7 0-1.4-0.7-2.4-1.5-3-3.8-2.9-8.2-4.9-14.9-4.9-13.2 0-22.4 10.1-22.4 22.5v0.1c0 12.5 9.4 22.4 22.1 22.4 7 0 11.7-2.2 15.8-5.8 0.7-0.6 1.2-1.6 1.2-2.7C524.8 522.4 523.1 520.7 521.1 520.7zM552.8 488.6H537.3c-2.2 0-3.9 1.7-3.9 3.9v36.2c0 2.1 1.7 3.8 3.9 3.8 2.1 0 3.8-1.7 3.8-3.8v-11.7h9.6l10.6 13.5c0.9 1.2 2 2 3.7 2 1.9 0 3.7-1.4 3.7-3.5 0-1.2-0.5-2-1.2-2.9l-8.3-10.5c5.8-1.8 9.9-6 9.9-13v-0.1c0-3.8-1.3-7-3.6-9.4C562.5 490.2 558.3 488.6 552.8 488.6zM561.2 502.9c0 4.4-3.5 7.3-8.9 7.3h-11.2v-14.6h11.1c5.7 0 9 2.6 9 7.2V502.9zM607.8 525.3h-21.8v-11.7h18.7c1.9 0 3.4-1.5 3.4-3.4 0-1.9-1.6-3.5-3.4-3.5h-18.7v-11.3h21.5c1.9 0 3.4-1.5 3.4-3.4 0-1.9-1.6-3.4-3.4-3.4h-25.3c-2.2 0-3.9 1.7-3.9 3.9v35.8c0 2.2 1.7 3.9 3.9 3.9h25.6c1.9 0 3.4-1.5 3.4-3.4C611.2 526.8 609.7 525.3 607.8 525.3zM650.6 488.6h-28.9c-2 0-3.5 1.6-3.5 3.5 0 1.9 1.6 3.5 3.5 3.5h10.6v32.9c0 2.1 1.7 3.8 3.9 3.8 2.1 0 3.9-1.7 3.9-3.8v-32.9h10.6c1.9 0 3.5-1.6 3.5-3.5C654.1 490.2 652.5 488.6 650.6 488.6zM691.3 525.3H669.5v-11.7h18.7c1.9 0 3.4-1.5 3.4-3.4 0-1.9-1.6-3.5-3.4-3.5H669.5v-11.3h21.5c1.9 0 3.4-1.5 3.4-3.4 0-1.9-1.6-3.4-3.4-3.4h-25.3c-2.2 0-3.9 1.7-3.9 3.9v35.8c0 2.2 1.7 3.9 3.9 3.9h25.6c1.9 0 3.4-1.5 3.4-3.4C694.8 526.8 693.2 525.3 691.3 525.3z"/></svg>